<svg xmlns="http://www.w3.org/2000/svg" xmlns:xlink="http://www.w3.org/1999/xlink" viewBox="0 0 1920 1080">
  <defs>
    <style>
      .cls-1 {
        fill: rgba(0,0,0,0);
        stroke: rgba(112,112,112,0);
      }

      .cls-2 {
        clip-path: url(#clip-Web_1920_1);
      }

      .cls-3 {
        clip-path: url(#clip-path);
      }

      .cls-4 {
        fill: rgba(255,255,255,0);
      }

      .cls-5 {
        fill: rgba(112,112,112,0);
      }

      .cls-6 {
        fill: url(#linear-gradient);
      }

      .cls-7 {
        fill: url(#linear-gradient-2);
      }

      .cls-8 {
        fill: #fff;
      }

      .cls-9 {
        filter: url(#Rectangle_1);
      }
    </style>
    <clipPath id="clip-path">
      <rect id="Rectangle_2" data-name="Rectangle 2" class="cls-1" width="1920" height="1076"/>
    </clipPath>
    <filter id="Rectangle_1" x="35" y="-81" width="1938" height="1094" filterUnits="userSpaceOnUse">
      <feOffset dy="3" input="SourceAlpha"/>
      <feGaussianBlur stdDeviation="3" result="blur"/>
      <feFlood flood-opacity="0"/>
      <feComposite operator="in" in2="blur"/>
      <feComposite in="SourceGraphic"/>
    </filter>
    <linearGradient id="linear-gradient" x1="0.5" x2="0.5" y2="1" gradientUnits="objectBoundingBox">
      <stop offset="0" stop-color="#17d1ca"/>
      <stop offset="1" stop-color="#fe96ec"/>
    </linearGradient>
    <linearGradient id="linear-gradient-2" x1="0.5" x2="0.5" y2="1" gradientUnits="objectBoundingBox">
      <stop offset="0" stop-color="#17d1ca"/>
      <stop offset="1" stop-color="#fff" stop-opacity="0.871"/>
    </linearGradient>
    <clipPath id="clip-Web_1920_1">
      <rect width="1920" height="1080"/>
    </clipPath>
  </defs>
  <g id="Web_1920_1" data-name="Web 1920 – 1" class="cls-2">
    <rect class="cls-8" width="1920" height="1080"/>
    <g id="MyLogo" class="cls-3" transform="translate(61 -52)">
      <g class="cls-9" transform="matrix(1, 0, 0, 1, -61, 52)">
        <rect id="Rectangle_1-2" data-name="Rectangle 1" class="cls-4" width="1920" height="1076" transform="translate(44 -75)"/>
      </g>
      <g id="iPhone_X" data-name="iPhone X" transform="translate(550.33 99)">
        <g id="Subtraction_2" data-name="Subtraction 2" transform="translate(0)">
          <path id="Path_2" data-name="Path 2" class="cls-5" d="M232.088,527a205.8,205.8,0,0,0,46.6-5.343,216.065,216.065,0,0,0,82.673-39.572c37.174-28.544,66.272-68.739,83.77-115.714A288.591,288.591,0,0,0,458.6,317.005a301.416,301.416,0,0,0,0-106.01,281.918,281.918,0,0,0-34.789-94.04c-25.094-42.285-60.43-75.384-101.727-95.288a210.228,210.228,0,0,0-43.4-15.324,205.861,205.861,0,0,0-93.2,0,216.067,216.067,0,0,0-82.673,39.573C65.644,74.46,36.546,114.655,19.048,161.629A288.639,288.639,0,0,0,5.576,210.995a301.406,301.406,0,0,0,0,106.01,281.919,281.919,0,0,0,34.789,94.04c25.094,42.285,60.429,75.384,101.726,95.288a210.194,210.194,0,0,0,43.4,15.324,205.8,205.8,0,0,0,46.6,5.343M240,100c78.044,0,141.538,73.346,141.538,163.5S318.044,427,240,427,98.462,353.654,98.462,263.5,161.955,100,240,100m-7.912,428a206.6,206.6,0,0,1-46.774-5.363,216.882,216.882,0,0,1-82.989-39.724c-37.314-28.653-66.522-69-84.086-116.152A289.778,289.778,0,0,1,4.716,317.2a302.533,302.533,0,0,1,0-106.41,282.987,282.987,0,0,1,34.922-94.4C64.828,73.948,100.3,40.725,141.749,20.747A211.041,211.041,0,0,1,185.314,5.364a206.631,206.631,0,0,1,93.547,0,216.884,216.884,0,0,1,82.989,39.724c37.314,28.653,66.523,69,84.087,116.152A289.754,289.754,0,0,1,459.461,210.8a302.563,302.563,0,0,1,0,106.41,282.981,282.981,0,0,1-34.922,94.4c-25.189,42.445-60.659,75.669-102.112,95.649a211.073,211.073,0,0,1-43.57,15.382A206.6,206.6,0,0,1,232.088,528ZM240,101c-77.56,0-140.659,72.9-140.659,162.5S162.44,426,240,426s140.659-72.9,140.659-162.5S317.56,101,240,101Z" transform="translate(0 0)"/>
          <path id="Path_5" data-name="Path 5" class="cls-6" d="M260.081,528a258.507,258.507,0,0,1-52.517-5.385C105.745,501.351,26.191,420.567,5.284,317.205a270.512,270.512,0,0,1,0-106.41C26.2,107.394,105.8,26.592,207.671,5.364a258.8,258.8,0,0,1,104.83,0C414.363,26.6,493.962,107.4,514.878,210.795a270.511,270.511,0,0,1,0,106.41C493.962,420.6,414.36,501.406,312.5,522.637A258.257,258.257,0,0,1,260.081,528Zm8.866-427c-86.914,0-157.625,72.9-157.625,162.5S182.033,426,268.947,426s157.625-72.9,157.625-162.5S355.862,101,268.947,101Z" transform="translate(30.769 207)"/>
          <path id="Path_6" data-name="Path 6" class="cls-5" d="M232.088,527a205.8,205.8,0,0,0,46.6-5.343,216.065,216.065,0,0,0,82.673-39.572c37.174-28.544,66.272-68.739,83.77-115.714A288.591,288.591,0,0,0,458.6,317.005a301.416,301.416,0,0,0,0-106.01,281.918,281.918,0,0,0-34.789-94.04c-25.094-42.285-60.43-75.384-101.727-95.288a210.228,210.228,0,0,0-43.4-15.324,205.861,205.861,0,0,0-93.2,0,216.067,216.067,0,0,0-82.673,39.573C65.644,74.46,36.546,114.655,19.048,161.629A288.639,288.639,0,0,0,5.576,210.995a301.406,301.406,0,0,0,0,106.01,281.919,281.919,0,0,0,34.789,94.04c25.094,42.285,60.429,75.384,101.726,95.288a210.194,210.194,0,0,0,43.4,15.324,205.8,205.8,0,0,0,46.6,5.343M240,100c78.044,0,141.538,73.346,141.538,163.5S318.044,427,240,427,98.462,353.654,98.462,263.5,161.955,100,240,100m-7.912,428a206.6,206.6,0,0,1-46.774-5.363,216.882,216.882,0,0,1-82.989-39.724c-37.314-28.653-66.522-69-84.086-116.152A289.778,289.778,0,0,1,4.716,317.2a302.533,302.533,0,0,1,0-106.41,282.987,282.987,0,0,1,34.922-94.4C64.828,73.948,100.3,40.725,141.749,20.747A211.041,211.041,0,0,1,185.314,5.364a206.631,206.631,0,0,1,93.547,0,216.884,216.884,0,0,1,82.989,39.724c37.314,28.653,66.523,69,84.087,116.152A289.754,289.754,0,0,1,459.461,210.8a302.563,302.563,0,0,1,0,106.41,282.981,282.981,0,0,1-34.922,94.4c-25.189,42.445-60.659,75.669-102.112,95.649a211.073,211.073,0,0,1-43.57,15.382A206.6,206.6,0,0,1,232.088,528ZM240,101c-77.56,0-140.659,72.9-140.659,162.5S162.44,426,240,426s140.659-72.9,140.659-162.5S317.56,101,240,101Z" transform="translate(0 453)"/>
        </g>
        <g id="Subtraction_1" data-name="Subtraction 1" transform="translate(128.23 219.988)">
          <path id="Path_3" data-name="Path 3" class="cls-7" d="M198.917,415.653a190.743,190.743,0,0,1-67.288-12.193A196.016,196.016,0,0,1,74.177,369.72a161.556,161.556,0,0,0,84.956,23.956c87.746,0,159.133-69.658,159.133-155.273S246.881,83.13,159.133,83.13C76.107,83.13,7.966,143.9.631,224.491.211,218.977,0,213.368,0,207.826a218.422,218.422,0,0,1,4.041-41.884,213.628,213.628,0,0,1,11.591-39.011,210.942,210.942,0,0,1,18.34-35.3,207.621,207.621,0,0,1,24.29-30.761A202.526,202.526,0,0,1,87.7,35.489,196.407,196.407,0,0,1,121.49,16.328a191.631,191.631,0,0,1,154.857,0,196.408,196.408,0,0,1,33.789,19.161,202.528,202.528,0,0,1,29.44,25.378,207.62,207.62,0,0,1,24.29,30.757,210.943,210.943,0,0,1,18.34,35.3A213.632,213.632,0,0,1,393.8,165.938a219.068,219.068,0,0,1,0,83.769,213.635,213.635,0,0,1-11.591,39.011,210.942,210.942,0,0,1-18.34,35.3,207.62,207.62,0,0,1-24.294,30.768,202.528,202.528,0,0,1-29.44,25.378,196.4,196.4,0,0,1-33.789,19.161A190.985,190.985,0,0,1,198.917,415.653Z" transform="translate(12.232 13.358)"/>
          <path id="Path_4" data-name="Path 4" class="cls-5" d="M175.824,434A146.019,146.019,0,0,0,243.9,417a167.828,167.828,0,0,0,29.714-19.951A190.726,190.726,0,0,0,299.5,370.62a214.918,214.918,0,0,0,21.37-32.041,236.721,236.721,0,0,0,16.139-36.78,254.384,254.384,0,0,0,10.2-40.649,269.6,269.6,0,0,0,0-87.3,254.416,254.416,0,0,0-10.2-40.649,236.751,236.751,0,0,0-16.139-36.78,214.88,214.88,0,0,0-21.37-32.04,190.773,190.773,0,0,0-25.895-26.43A167.848,167.848,0,0,0,243.9,18C200.7-4.677,150.944-4.677,107.753,18A167.831,167.831,0,0,0,78.039,37.951a190.739,190.739,0,0,0-25.895,26.43,214.934,214.934,0,0,0-21.37,32.04A236.722,236.722,0,0,0,14.637,133.2a254.263,254.263,0,0,0-10.2,40.649A268.253,268.253,0,0,0,.879,217.5q0,2.821.059,5.654C11.868,144.18,70.247,86,140.659,86,218.7,86,282.2,159.346,282.2,249.5S218.7,413,140.659,413a126.308,126.308,0,0,1-65.934-18.788,165.49,165.49,0,0,0,41.943,27.1A144.784,144.784,0,0,0,175.824,434m0,1a145.563,145.563,0,0,1-59.476-12.76,169.682,169.682,0,0,1-50.782-35.311c22.4,16.387,48.465,25.09,75.094,25.071,77.56,0,140.659-72.9,140.659-162.5S218.22,87,140.659,87C67.271,87,7.041,150.6.557,234.94.186,229.17,0,223.3,0,217.5a269.4,269.4,0,0,1,3.572-43.834,255.393,255.393,0,0,1,10.245-40.827A237.793,237.793,0,0,1,30.028,95.894,215.923,215.923,0,0,1,51.5,63.7,191.666,191.666,0,0,1,77.519,37.141a168.709,168.709,0,0,1,29.866-20.053c43.425-22.8,93.454-22.8,136.879,0a168.709,168.709,0,0,1,29.866,20.053A191.671,191.671,0,0,1,300.153,63.7a215.9,215.9,0,0,1,21.47,32.189,237.877,237.877,0,0,1,16.211,36.945,255.339,255.339,0,0,1,10.244,40.827,270.684,270.684,0,0,1,0,87.668,255.314,255.314,0,0,1-10.244,40.827A237.825,237.825,0,0,1,321.623,339.1a215.94,215.94,0,0,1-21.47,32.19,191.692,191.692,0,0,1-26.022,26.558A168.784,168.784,0,0,1,244.265,417.9a146.826,146.826,0,0,1-68.44,17.1Z" transform="translate(0 0.011)"/>
        </g>
      </g>
    </g>
  </g>
</svg>
