<svg xmlns="http://www.w3.org/2000/svg" width="166" height="153" viewBox="0 0 166 153">
    <g fill="none" fill-rule="evenodd">
        <path fill="#007AFF" fill-rule="nonzero" d="M148.894 27.771l16.124 60.95a15 15 0 0 1-3.894 14.443l-44.96 44.96a15 15 0 0 1-14.443 3.894l-60.95-16.124a15 15 0 0 1-10.665-10.665l-16.124-60.95a15 15 0 0 1 3.894-14.443l44.96-44.96A15 15 0 0 1 77.279.982l60.95 16.124a15 15 0 0 1 10.665 10.665z" opacity=".5"/>
        <path fill="#409BFF" fill-rule="nonzero" d="M97.473 15.997l44 25.28A15 15 0 0 1 149 54.283v50.434a15 15 0 0 1-7.527 13.006l-44 25.28a15 15 0 0 1-14.946 0l-44-25.28A15 15 0 0 1 31 104.717V54.283a15 15 0 0 1 7.527-13.006l44-25.28a15 15 0 0 1 14.946 0z"/>
        <text fill="#FFF" font-family="GothamPro-Bold, Gotham Pro" font-size="120" font-weight="bold" transform="translate(-16 -29)">
            <tspan x="10" y="183">02</tspan>
        </text>
    </g>
</svg>
