<svg xmlns="http://www.w3.org/2000/svg" xmlns:xlink="http://www.w3.org/1999/xlink" viewBox="0 0 1920 1080">
  <defs>
    <style>
      .cls-1 {
        clip-path: url(#clip-path);
      }

      .cls-2, .cls-5, .cls-6, .cls-8 {
        fill: #fff;
      }

      .cls-3 {
        fill: #ebf7ff;
      }

      .cls-4 {
        fill: rgba(112,112,112,0);
      }

      .cls-5 {
        stroke: #f6afeb;
      }

      .cls-5, .cls-6, .cls-7, .cls-8 {
        stroke-width: 6px;
      }

      .cls-6 {
        stroke: #dcf1ff;
      }

      .cls-7 {
        fill: #fefefe;
      }

      .cls-7, .cls-8 {
        stroke: #d5eaf8;
      }

      .cls-9 {
        stroke: none;
      }

      .cls-10 {
        fill: none;
      }
    </style>
    <clipPath id="clip-path">
      <rect id="Rectangle_13" data-name="Rectangle 13" width="1920" height="1080"/>
    </clipPath>
  </defs>
  <g id="Web_1920_1" data-name="Web 1920 – 1" class="cls-1">
    <rect class="cls-2" width="1920" height="1080"/>
    <g id="blob" class="cls-1" transform="translate(-1 8)">
      <rect id="Rectangle_1" data-name="Rectangle 1" class="cls-2" width="1920" height="1080"/>
      <g id="blob1" transform="translate(-4 -2)">
        <rect id="Rectangle_1-2" data-name="Rectangle 1" class="cls-2" width="1920" height="1080"/>
        <g id="blob1-2" data-name="blob1" transform="translate(-21)">
          <rect id="Rectangle_12" data-name="Rectangle 12" class="cls-2" width="1920" height="1080"/>
          <g id="Path_1" data-name="Path 1" transform="translate(548 189)">
            <path id="Path_1-2" data-name="Path 1" class="cls-3" d="M390.843,0c166.681,29.821,93.025,256.259,390.843,377.5S606.7,755,390.843,755,0,585.987,0,377.5,224.162-29.821,390.843,0Z"/>
            <path id="Path_2" data-name="Path 2" class="cls-4" d="M356.451-1.981a242.09,242.09,0,0,0-61.39,8.337A323.168,323.168,0,0,0,233.133,30.01a403.976,403.976,0,0,0-59.766,36.915,455.773,455.773,0,0,0-54.909,48.1,461.425,461.425,0,0,0-47.361,57.2,424.677,424.677,0,0,0-37.133,64.2A366.2,366.2,0,0,0,9.733,305.548,323.811,323.811,0,0,0,3.288,341.3a300.454,300.454,0,0,0-2.223,36.2,369.531,369.531,0,0,0,2.01,38.475A365.37,365.37,0,0,0,67.64,588.015a382.441,382.441,0,0,0,47.6,55.721,389.968,389.968,0,0,0,57.688,45.972,394.347,394.347,0,0,0,66.207,34.709,398.309,398.309,0,0,0,111.852,27.639Q370.851,754,390.843,754c19.406,0,41.342-2.086,65.2-6.2a659.457,659.457,0,0,0,73.53-17.4c25.29-7.444,51.2-16.452,77-26.773,25.9-10.36,51.345-21.9,75.631-34.309a761.411,761.411,0,0,0,69.427-40,512.908,512.908,0,0,0,58.387-43.838c17.517-15.423,31.822-30.83,42.52-45.793a156.623,156.623,0,0,0,13.806-23.026,105.578,105.578,0,0,0,8.055-22.785,79.949,79.949,0,0,0,1.917-15.988,70.009,70.009,0,0,0-6.642-30.982,83.445,83.445,0,0,0-9-14.875,109.2,109.2,0,0,0-13.111-14.375A152.344,152.344,0,0,0,830.1,403.868a218.423,218.423,0,0,0-22.026-13.111c-8.177-4.272-17.2-8.423-26.82-12.339-165.7-67.463-216.752-167.6-257.765-248.055-8.246-16.177-16.034-31.456-24.3-45.6-4.416-7.561-8.607-14.184-12.813-20.246A198.047,198.047,0,0,0,472.3,46.388a136.579,136.579,0,0,0-34.484-28.709,132.81,132.81,0,0,0-21.672-10,159.161,159.161,0,0,0-25.5-6.7,194.719,194.719,0,0,0-34.193-2.963m0-1A194.959,194.959,0,0,1,390.843,0c166.681,29.821,93.025,256.259,390.843,377.5S606.7,755,390.843,755,0,585.988,0,377.5C0,183.074,194.975-2.981,356.451-2.981Z"/>
          </g>
        </g>
        <g id="Ellipse_6" data-name="Ellipse 6" class="cls-5" transform="translate(1013 228)">
          <circle class="cls-9" cx="9.5" cy="9.5" r="9.5"/>
          <circle class="cls-10" cx="9.5" cy="9.5" r="6.5"/>
        </g>
        <g id="Ellipse_7" data-name="Ellipse 7" class="cls-5" transform="translate(1786 93)">
          <circle class="cls-9" cx="9.5" cy="9.5" r="9.5"/>
          <circle class="cls-10" cx="9.5" cy="9.5" r="6.5"/>
        </g>
        <g id="Ellipse_8" data-name="Ellipse 8" class="cls-5" transform="translate(1699 657)">
          <circle class="cls-9" cx="9.5" cy="9.5" r="9.5"/>
          <circle class="cls-10" cx="9.5" cy="9.5" r="6.5"/>
        </g>
        <g id="Ellipse_9" data-name="Ellipse 9" class="cls-5" transform="translate(1070 709)">
          <circle class="cls-9" cx="9.5" cy="9.5" r="9.5"/>
          <circle class="cls-10" cx="9.5" cy="9.5" r="6.5"/>
        </g>
        <g id="Ellipse_10" data-name="Ellipse 10" class="cls-5" transform="translate(734 412)">
          <circle class="cls-9" cx="9.5" cy="9.5" r="9.5"/>
          <circle class="cls-10" cx="9.5" cy="9.5" r="6.5"/>
        </g>
        <g id="Rectangle_3" data-name="Rectangle 3" class="cls-6" transform="translate(1823 475)">
          <rect class="cls-9" width="19" height="19"/>
          <rect class="cls-10" x="3" y="3" width="13" height="13"/>
        </g>
        <g id="Rectangle_4" data-name="Rectangle 4" class="cls-6" transform="translate(753 33)">
          <rect class="cls-9" width="19" height="19"/>
          <rect class="cls-10" x="3" y="3" width="13" height="13"/>
        </g>
        <g id="Rectangle_5" data-name="Rectangle 5" class="cls-6" transform="translate(1354 74)">
          <rect class="cls-9" width="19" height="19"/>
          <rect class="cls-10" x="3" y="3" width="13" height="13"/>
        </g>
        <g id="Ellipse_11" data-name="Ellipse 11" class="cls-5" transform="translate(1614 228)">
          <circle class="cls-9" cx="9.5" cy="9.5" r="9.5"/>
          <circle class="cls-10" cx="9.5" cy="9.5" r="6.5"/>
        </g>
        <g id="Rectangle_7" data-name="Rectangle 7" class="cls-7" transform="translate(252 65)">
          <rect class="cls-9" width="19" height="19"/>
          <rect class="cls-10" x="3" y="3" width="13" height="13"/>
        </g>
        <g id="Ellipse_12" data-name="Ellipse 12" class="cls-5" transform="translate(73 228)">
          <circle class="cls-9" cx="9.5" cy="9.5" r="9.5"/>
          <circle class="cls-10" cx="9.5" cy="9.5" r="6.5"/>
        </g>
        <g id="Ellipse_13" data-name="Ellipse 13" class="cls-5" transform="translate(473 228)">
          <circle class="cls-9" cx="9.5" cy="9.5" r="9.5"/>
          <circle class="cls-10" cx="9.5" cy="9.5" r="6.5"/>
        </g>
        <g id="Ellipse_15" data-name="Ellipse 15" class="cls-5" transform="translate(73 521)">
          <circle class="cls-9" cx="9.5" cy="9.5" r="9.5"/>
          <circle class="cls-10" cx="9.5" cy="9.5" r="6.5"/>
        </g>
        <g id="Ellipse_16" data-name="Ellipse 16" class="cls-5" transform="translate(363 708)">
          <circle class="cls-9" cx="9.5" cy="9.5" r="9.5"/>
          <circle class="cls-10" cx="9.5" cy="9.5" r="6.5"/>
        </g>
        <g id="Rectangle_11" data-name="Rectangle 11" class="cls-8" transform="translate(125 738)">
          <rect class="cls-9" width="19" height="19"/>
          <rect class="cls-10" x="3" y="3" width="13" height="13"/>
        </g>
        <g id="Ellipse_18" data-name="Ellipse 18" class="cls-5" transform="translate(1455 766)">
          <circle class="cls-9" cx="9.5" cy="9.5" r="9.5"/>
          <circle class="cls-10" cx="9.5" cy="9.5" r="6.5"/>
        </g>
        <g id="Rectangle_14" data-name="Rectangle 14" class="cls-6" transform="translate(1403 345)">
          <rect class="cls-9" width="19" height="19"/>
          <rect class="cls-10" x="3" y="3" width="13" height="13"/>
        </g>
        <g id="Rectangle_15" data-name="Rectangle 15" class="cls-8" transform="translate(252 364)">
          <rect class="cls-9" width="19" height="19"/>
          <rect class="cls-10" x="3" y="3" width="13" height="13"/>
        </g>
      </g>
    </g>
  </g>
</svg>
