<svg xmlns="http://www.w3.org/2000/svg" xmlns:xlink="http://www.w3.org/1999/xlink" viewBox="0 0 1920 1080">
  <defs>
    <style>
      .cls-1 {
        clip-path: url(#clip-path);
      }

      .cls-2, .cls-3, .cls-4, .cls-6 {
        fill: #fff;
      }

      .cls-3 {
        stroke: #f6afeb;
      }

      .cls-3, .cls-4, .cls-5, .cls-6 {
        stroke-width: 6px;
      }

      .cls-4 {
        stroke: #dcf1ff;
      }

      .cls-5 {
        fill: #fefefe;
      }

      .cls-5, .cls-6 {
        stroke: #d5eaf8;
      }

      .cls-7 {
        stroke: none;
      }

      .cls-8 {
        fill: none;
      }
    </style>
    <clipPath id="clip-path">
      <rect id="Rectangle_13" data-name="Rectangle 13" width="1920" height="1080"/>
    </clipPath>
  </defs>
  <g id="Web_1920_1" data-name="Web 1920 – 1" class="cls-1">
    <rect class="cls-2" width="1920" height="1080"/>
    <g id="blob" class="cls-1">
      <rect id="Rectangle_1" data-name="Rectangle 1" class="cls-2" width="1920" height="1080"/>
      <g id="blob-2" data-name="blob" transform="translate(-1 8)">
        <rect id="Rectangle_1-2" data-name="Rectangle 1" class="cls-2" width="1920" height="1080"/>
        <g id="blob1" transform="translate(-4 -2)">
          <rect id="Rectangle_1-3" data-name="Rectangle 1" class="cls-2" width="1920" height="1080"/>
          <g id="blob1-2" data-name="blob1" transform="translate(-21)">
            <rect id="Rectangle_12" data-name="Rectangle 12" class="cls-2" width="1920" height="1080" transform="translate(26 -6)"/>
          </g>
          <g id="Ellipse_6" data-name="Ellipse 6" class="cls-3" transform="translate(1051 196)">
            <circle class="cls-7" cx="9.5" cy="9.5" r="9.5"/>
            <circle class="cls-8" cx="9.5" cy="9.5" r="6.5"/>
          </g>
          <g id="Ellipse_7" data-name="Ellipse 7" class="cls-3" transform="translate(1786 93)">
            <circle class="cls-7" cx="9.5" cy="9.5" r="9.5"/>
            <circle class="cls-8" cx="9.5" cy="9.5" r="6.5"/>
          </g>
          <g id="Ellipse_8" data-name="Ellipse 8" class="cls-3" transform="translate(1699 657)">
            <circle class="cls-7" cx="9.5" cy="9.5" r="9.5"/>
            <circle class="cls-8" cx="9.5" cy="9.5" r="6.5"/>
          </g>
          <g id="Ellipse_9" data-name="Ellipse 9" class="cls-3" transform="translate(1096 616)">
            <circle class="cls-7" cx="9.5" cy="9.5" r="9.5"/>
            <circle class="cls-8" cx="9.5" cy="9.5" r="6.5"/>
          </g>
          <g id="Ellipse_10" data-name="Ellipse 10" class="cls-3" transform="translate(668 310)">
            <circle class="cls-7" cx="9.5" cy="9.5" r="9.5"/>
            <circle class="cls-8" cx="9.5" cy="9.5" r="6.5"/>
          </g>
          <g id="Rectangle_3" data-name="Rectangle 3" class="cls-4" transform="translate(1823 475)">
            <rect class="cls-7" width="19" height="19"/>
            <rect class="cls-8" x="3" y="3" width="13" height="13"/>
          </g>
          <g id="Rectangle_4" data-name="Rectangle 4" class="cls-4" transform="translate(753 33)">
            <rect class="cls-7" width="19" height="19"/>
            <rect class="cls-8" x="3" y="3" width="13" height="13"/>
          </g>
          <g id="Rectangle_5" data-name="Rectangle 5" class="cls-4" transform="translate(1354 74)">
            <rect class="cls-7" width="19" height="19"/>
            <rect class="cls-8" x="3" y="3" width="13" height="13"/>
          </g>
          <g id="Ellipse_11" data-name="Ellipse 11" class="cls-3" transform="translate(1614 228)">
            <circle class="cls-7" cx="9.5" cy="9.5" r="9.5"/>
            <circle class="cls-8" cx="9.5" cy="9.5" r="6.5"/>
          </g>
          <g id="Rectangle_7" data-name="Rectangle 7" class="cls-5" transform="translate(252 65)">
            <rect class="cls-7" width="19" height="19"/>
            <rect class="cls-8" x="3" y="3" width="13" height="13"/>
          </g>
          <g id="Ellipse_12" data-name="Ellipse 12" class="cls-3" transform="translate(73 228)">
            <circle class="cls-7" cx="9.5" cy="9.5" r="9.5"/>
            <circle class="cls-8" cx="9.5" cy="9.5" r="6.5"/>
          </g>
          <g id="Ellipse_13" data-name="Ellipse 13" class="cls-3" transform="translate(473 228)">
            <circle class="cls-7" cx="9.5" cy="9.5" r="9.5"/>
            <circle class="cls-8" cx="9.5" cy="9.5" r="6.5"/>
          </g>
          <g id="Ellipse_15" data-name="Ellipse 15" class="cls-3" transform="translate(73 521)">
            <circle class="cls-7" cx="9.5" cy="9.5" r="9.5"/>
            <circle class="cls-8" cx="9.5" cy="9.5" r="6.5"/>
          </g>
          <g id="Ellipse_16" data-name="Ellipse 16" class="cls-3" transform="translate(363 708)">
            <circle class="cls-7" cx="9.5" cy="9.5" r="9.5"/>
            <circle class="cls-8" cx="9.5" cy="9.5" r="6.5"/>
          </g>
          <g id="Rectangle_11" data-name="Rectangle 11" class="cls-6" transform="translate(125 738)">
            <rect class="cls-7" width="19" height="19"/>
            <rect class="cls-8" x="3" y="3" width="13" height="13"/>
          </g>
          <g id="Ellipse_18" data-name="Ellipse 18" class="cls-3" transform="translate(1455 766)">
            <circle class="cls-7" cx="9.5" cy="9.5" r="9.5"/>
            <circle class="cls-8" cx="9.5" cy="9.5" r="6.5"/>
          </g>
          <g id="Rectangle_14" data-name="Rectangle 14" class="cls-4" transform="translate(1403 345)">
            <rect class="cls-7" width="19" height="19"/>
            <rect class="cls-8" x="3" y="3" width="13" height="13"/>
          </g>
          <g id="Rectangle_15" data-name="Rectangle 15" class="cls-6" transform="translate(252 364)">
            <rect class="cls-7" width="19" height="19"/>
            <rect class="cls-8" x="3" y="3" width="13" height="13"/>
          </g>
          <g id="Rectangle_7-2" data-name="Rectangle 7" class="cls-5" transform="translate(252 65)">
            <rect class="cls-7" width="19" height="19"/>
            <rect class="cls-8" x="3" y="3" width="13" height="13"/>
          </g>
          <g id="Ellipse_12-2" data-name="Ellipse 12" class="cls-3" transform="translate(73 228)">
            <circle class="cls-7" cx="9.5" cy="9.5" r="9.5"/>
            <circle class="cls-8" cx="9.5" cy="9.5" r="6.5"/>
          </g>
          <g id="Ellipse_13-2" data-name="Ellipse 13" class="cls-3" transform="translate(473 228)">
            <circle class="cls-7" cx="9.5" cy="9.5" r="9.5"/>
            <circle class="cls-8" cx="9.5" cy="9.5" r="6.5"/>
          </g>
          <g id="Rectangle_15-2" data-name="Rectangle 15" class="cls-6" transform="translate(252 364)">
            <rect class="cls-7" width="19" height="19"/>
            <rect class="cls-8" x="3" y="3" width="13" height="13"/>
          </g>
          <g id="Rectangle_7-3" data-name="Rectangle 7" class="cls-5" transform="translate(871 336)">
            <rect class="cls-7" width="19" height="19"/>
            <rect class="cls-8" x="3" y="3" width="13" height="13"/>
          </g>
          <g id="Ellipse_12-3" data-name="Ellipse 12" class="cls-3" transform="translate(614 607)">
            <circle class="cls-7" cx="9.5" cy="9.5" r="9.5"/>
            <circle class="cls-8" cx="9.5" cy="9.5" r="6.5"/>
          </g>
          <g id="Ellipse_13-3" data-name="Ellipse 13" class="cls-3" transform="translate(1149 409)">
            <circle class="cls-7" cx="9.5" cy="9.5" r="9.5"/>
            <circle class="cls-8" cx="9.5" cy="9.5" r="6.5"/>
          </g>
          <g id="Rectangle_15-3" data-name="Rectangle 15" class="cls-6" transform="translate(881 748)">
            <rect class="cls-7" width="19" height="19"/>
            <rect class="cls-8" x="3" y="3" width="13" height="13"/>
          </g>
          <g id="Ellipse_10-2" data-name="Ellipse 10" class="cls-3" transform="translate(806 555)">
            <circle class="cls-7" cx="9.5" cy="9.5" r="9.5"/>
            <circle class="cls-8" cx="9.5" cy="9.5" r="6.5"/>
          </g>
        </g>
      </g>
    </g>
  </g>
</svg>
